<svg width="293" height="60" viewBox="0 0 293 60" fill="none" xmlns="http://www.w3.org/2000/svg">
<path fill-rule="evenodd" clip-rule="evenodd" d="M28.0981 8.69527L28.5974 1.99583C28.6786 0.90117 29.4953 0 30.5932 0C31.6911 0 32.5078 0.90117 32.5901 1.9969L33.0893 8.69955L28.0981 8.69527Z" fill="#020087"/>
<path fill-rule="evenodd" clip-rule="evenodd" d="M13.7847 16.7469L9.40074 11.6574C8.68451 10.8257 8.62465 9.61024 9.40074 8.83414C10.1768 8.05804 11.3923 8.11791 12.224 8.83414L17.3167 13.2213L13.7847 16.7469Z" fill="#020087"/>
<path fill-rule="evenodd" clip-rule="evenodd" d="M9.35608 32.562L2.65664 32.0627C1.56198 31.9815 0.659744 31.1648 0.659744 30.0658C0.659744 28.968 1.56091 28.1512 2.65664 28.0689L9.35929 27.5697L9.35608 32.562Z" fill="#020087"/>
<path fill-rule="evenodd" clip-rule="evenodd" d="M17.4076 46.8759L12.3181 51.2598C11.4864 51.9761 10.271 52.0359 9.49486 51.2598C8.71876 50.4837 8.77863 49.2683 9.49486 48.4366L13.882 43.3439L17.4076 46.8759Z" fill="#020087"/>
<path fill-rule="evenodd" clip-rule="evenodd" d="M33.2227 51.3037L32.7235 58.0032C32.6423 59.0978 31.8255 60.0001 30.7266 60.0001C29.6287 60.0001 28.812 59.0989 28.7297 58.0032L28.2305 51.3005L33.2227 51.3037Z" fill="#020087"/>
<path fill-rule="evenodd" clip-rule="evenodd" d="M47.5363 43.252L51.9203 48.3415C52.6365 49.1732 52.6964 50.3886 51.9203 51.1647C51.1442 51.9408 49.9288 51.8809 49.0971 51.1647L44.0043 46.7775L47.5363 43.252Z" fill="#020087"/>
<path fill-rule="evenodd" clip-rule="evenodd" d="M51.9642 27.4371L58.6636 27.9364C59.7583 28.0176 60.6605 28.8343 60.6605 29.9333C60.6605 31.0311 59.7593 31.8478 58.6636 31.9302L51.961 32.4294L51.9642 27.4371Z" fill="#020087"/>
<path fill-rule="evenodd" clip-rule="evenodd" d="M43.9126 13.123L49.0022 8.73905C49.8338 8.02282 51.0493 7.96295 51.8254 8.73905C52.6015 9.51514 52.5416 10.7306 51.8254 11.5623L47.4382 16.655L43.9126 13.123Z" fill="#020087"/>
<path fill-rule="evenodd" clip-rule="evenodd" d="M30.6607 14.6924C39.1144 14.6924 45.9678 21.5458 45.9678 29.9995C45.9678 38.4532 39.1144 45.3065 30.6607 45.3065C22.207 45.3065 15.3536 38.4532 15.3536 29.9995C15.3536 21.5458 22.207 14.6924 30.6607 14.6924ZM30.6607 8.37891C42.6015 8.37891 52.2813 18.0587 52.2813 29.9995C52.2813 41.9403 42.6015 51.6201 30.6607 51.6201C18.7199 51.6201 9.04012 41.9403 9.04012 29.9995C9.04012 18.0587 18.7199 8.37891 30.6607 8.37891Z" fill="#020087"/>
<path fill-rule="evenodd" clip-rule="evenodd" d="M49.7781 32.6356C50.2858 32.6249 50.7049 33.0279 50.7156 33.5357C50.7263 34.0434 50.3232 34.4625 49.8155 34.4732C49.3077 34.4839 48.8876 34.0809 48.878 33.5731C48.8673 33.0653 49.2703 32.6452 49.7781 32.6356ZM33.5271 17.8331C37.9517 17.6599 39.2217 19.7316 42.1529 23.1482C46.4952 24.3796 52.0187 28.3285 52.6847 33.1027C52.8429 34.2348 52.1919 36.8175 52.0262 37.9571C51.8605 39.0966 52.4602 40.7065 52.937 41.535C53.4137 42.3635 53.4896 43.471 53.2021 43.936C52.9145 44.4021 52.0176 44.1765 51.6595 43.8857C51.3025 43.5961 47.9714 39.3906 47.9682 39.2014C47.964 39.0122 46.9698 39.3029 46.0494 39.2399C45.129 39.1779 43.7906 38.529 42.4116 37.2312C41.0336 35.9345 40.4938 36.0264 39.7102 36.0147C38.9255 36.004 35.6426 38.1249 34.8227 39.0346C34.0028 39.9433 33.6008 40.141 33.1946 40.0683C32.7873 39.9956 32.9872 37.8555 32.581 36.4572C32.1737 35.059 31.4297 33.0461 28.5979 32.0487C24.4587 30.5916 13.2288 34.0349 10.0026 36.7673C10.0026 36.7673 9.99297 36.7779 9.84972 36.9725C7.53319 40.1025 8.57547 42.1369 7.39101 42.4308C6.20763 42.7248 5.91258 40.8519 5.91472 40.311C5.91686 39.7701 5.91686 39.7701 5.91686 39.7701C5.91686 39.7701 5.70199 40.5045 4.912 40.8722C4.122 41.24 1.6975 41.6943 0.669122 40.9984C-2.53575 38.8294 6.78596 35.1456 7.28625 34.7062C7.79082 34.2637 14.0306 27.1655 19.8951 24.2888C25.7586 21.411 34.3962 21.9391 34.3962 21.9391C33.9953 21.2507 31.9449 17.9881 33.5271 17.8331Z" fill="#020087"/>
<path fill-rule="evenodd" clip-rule="evenodd" d="M49.7789 32.6357C50.2867 32.625 50.7057 33.028 50.7164 33.5358C50.7271 34.0436 50.3241 34.4626 49.8163 34.4733C49.3086 34.484 48.8895 34.081 48.8788 33.5732C48.8681 33.0654 49.2711 32.6453 49.7789 32.6357ZM49.8206 31.6918C51.004 31.6918 51.964 32.6517 51.964 33.8351C51.964 35.0185 51.004 35.9785 49.8206 35.9785C48.6372 35.9785 47.6773 35.0185 47.6773 33.8351C47.6783 32.6517 48.6372 31.6918 49.8206 31.6918Z" fill="#FFF100"/>
<path fill-rule="evenodd" clip-rule="evenodd" d="M49.7666 32.1234C50.5566 32.1074 51.2097 32.736 51.2258 33.5249C51.2418 34.3149 50.6132 34.9681 49.8243 34.9841C49.0343 35.0001 48.3812 34.3715 48.3651 33.5826C48.3491 32.7937 48.9777 32.1395 49.7666 32.1234ZM33.5637 18.3429C33.537 18.3461 33.4878 18.3547 33.4728 18.3675C33.414 18.4413 33.4675 18.762 33.4846 18.8443C33.5648 19.2216 33.7326 19.6172 33.8951 19.9657C34.1762 20.5654 34.5044 21.1116 34.8347 21.6814L35.3126 22.5067L34.3601 22.449C34.0266 22.4286 33.6888 22.4212 33.3542 22.4158C32.4936 22.4019 31.6309 22.4158 30.7704 22.4554C28.2679 22.5687 25.6841 22.8915 23.2703 23.5693C22.1906 23.8718 21.1226 24.2534 20.1146 24.7484C18.6094 25.4871 17.1737 26.4524 15.8396 27.4647C13.8887 28.9453 12.0511 30.6108 10.3107 32.333C9.6982 32.9391 9.09635 33.5559 8.50092 34.1791C8.31384 34.3758 8.12677 34.5725 7.93862 34.7692C7.83707 34.8761 7.72803 34.9948 7.61792 35.0921C7.47468 35.2171 7.21811 35.339 7.046 35.4245C6.73279 35.5817 6.41636 35.7335 6.10101 35.8874C5.22977 36.3139 4.36281 36.7522 3.52257 37.2375C2.76037 37.6769 1.93938 38.1922 1.28835 38.7865C1.00827 39.042 0.468428 39.5883 0.506912 40.0105C0.529361 40.2532 0.762404 40.4499 0.949479 40.5771C1.71809 41.0966 3.89458 40.7802 4.68992 40.4103C4.93152 40.2981 5.13035 40.1249 5.27787 39.9036C5.61995 39.4782 5.93959 38.9939 6.15766 38.5556C6.26456 39.1853 6.27846 40.6669 6.60664 41.3222C6.67506 41.5136 6.81296 41.8182 7.00217 41.9187C7.08449 41.9625 7.17108 41.9583 7.25981 41.9358C7.29829 41.9262 7.33784 41.9123 7.36671 41.8845C7.45436 41.8022 7.51209 41.5595 7.53775 41.4473C7.6222 41.0731 7.67565 40.6894 7.75689 40.312C8.05194 38.9458 8.59713 37.7934 9.42988 36.6688C9.48654 36.5929 9.55282 36.4924 9.61803 36.4219L9.63941 36.3984L9.66399 36.3781C10.6999 35.5015 12.1644 34.7788 13.4023 34.2358C15.0903 33.495 16.868 32.8856 18.6436 32.3918C21.3119 31.6499 26.0828 30.6247 28.7596 31.5665C30.0178 32.009 31.1071 32.7178 31.9035 33.7996C32.4722 34.5714 32.7994 35.4031 33.0645 36.3139C33.181 36.7159 33.2473 37.1392 33.2932 37.555C33.3456 38.0275 33.3713 38.5011 33.4098 38.9747C33.4183 39.0826 33.4376 39.3445 33.4707 39.5359C33.8181 39.398 34.2799 38.8667 34.436 38.6925C34.7086 38.3899 35.0678 38.1056 35.3906 37.8576C35.8204 37.5283 36.2693 37.2183 36.7237 36.9243C37.3448 36.5213 38.975 35.494 39.7115 35.5036C39.8794 35.5058 40.0472 35.5036 40.215 35.5122C41.268 35.5646 42.0152 36.1611 42.7571 36.8591C43.5525 37.6074 44.94 38.6529 46.0785 38.7299C46.1288 38.7331 46.1801 38.7352 46.2303 38.7363C46.6087 38.7448 46.9829 38.6989 47.3581 38.6572C47.7291 38.6155 48.224 38.546 48.4218 38.964C48.4325 38.9875 48.4421 39.011 48.4496 39.0356C48.4955 39.1136 48.5618 39.2013 48.611 39.2708C48.7414 39.4536 48.8761 39.6332 49.0119 39.8128C49.386 40.3088 49.7698 40.7995 50.1557 41.2859C50.5427 41.7744 50.9329 42.2608 51.3305 42.7408C51.4738 42.914 51.6181 43.0871 51.7656 43.256C51.8298 43.3287 51.9099 43.4281 51.9773 43.488C52.082 43.5725 52.2648 43.6377 52.3942 43.6655C52.4669 43.6815 52.701 43.7125 52.7619 43.6655C52.8517 43.5211 52.8592 43.2069 52.8507 43.0433C52.8336 42.7023 52.748 42.3442 52.6112 42.032C52.5749 41.9486 52.5342 41.8674 52.4883 41.7883C51.8939 40.7556 51.3402 39.0784 51.5144 37.8811C51.6299 37.0868 51.8169 36.2861 51.958 35.4929C52.0371 35.0493 52.1098 34.6003 52.1547 34.1513C52.1857 33.8467 52.2146 33.4757 52.1729 33.1721C51.5358 28.6139 46.1448 24.8125 42.0078 23.6398L41.8592 23.5981L41.7587 23.4816C41.0211 22.6211 40.3038 21.7295 39.5352 20.8978C38.9429 20.2575 38.3005 19.6417 37.5479 19.1917C36.3196 18.453 34.9769 18.2895 33.5637 18.3429Z" fill="#FFF100"/>
<path fill-rule="evenodd" clip-rule="evenodd" d="M42.3109 47.22L39.9292 44.0889L41.2611 43.0766C41.5957 42.8221 41.8609 42.6661 42.0543 42.6062C42.25 42.5463 42.4467 42.5549 42.6466 42.6287C42.8475 42.7035 43.0186 42.8328 43.1597 43.0178C43.3393 43.253 43.4173 43.4988 43.3959 43.7565C43.3746 44.0152 43.242 44.2664 42.9983 44.5155C43.195 44.4909 43.3735 44.4941 43.5349 44.5219C43.6963 44.5497 43.9454 44.6288 44.2811 44.7581L45.1277 45.0788L44.3719 45.6539L43.3981 45.3151C43.0507 45.1964 42.823 45.128 42.7139 45.1098C42.607 45.0927 42.5097 45.097 42.4253 45.1248C42.3398 45.1526 42.2243 45.2221 42.0789 45.3332L41.9507 45.4305L42.9448 46.7379L42.3109 47.22ZM41.5712 44.9324L42.0394 44.5764C42.343 44.3455 42.5215 44.1894 42.5782 44.106C42.6337 44.0237 42.6605 43.9328 42.6551 43.8388C42.6498 43.7426 42.6113 43.6485 42.5397 43.5544C42.4595 43.4486 42.3665 43.3855 42.2607 43.3631C42.1559 43.3406 42.0447 43.3599 41.9303 43.4208C41.8726 43.4529 41.7165 43.5662 41.46 43.7607L40.9661 44.136L41.5712 44.9324Z" fill="#FFF100"/>
<path fill-rule="evenodd" clip-rule="evenodd" d="M40.6625 48.2164L39.8661 48.5349L39.2172 47.8294L37.7526 48.4163L37.7826 49.3688L37.0001 49.682L36.9541 45.4626L37.7355 45.1494L40.6625 48.2164ZM38.7297 47.3099L37.681 46.1618L37.7302 47.7107L38.7297 47.3099Z" fill="#FFF100"/>
<path fill-rule="evenodd" clip-rule="evenodd" d="M33.3511 50.4282L32.8572 47.0736L31.6621 47.25L31.5616 46.568L34.7633 46.0966L34.8637 46.7786L33.675 46.9539L34.1689 50.3074L33.3511 50.4282Z" fill="#FFF100"/>
<path fill-rule="evenodd" clip-rule="evenodd" d="M26.4473 48.8471L27.2522 48.907C27.2533 49.1796 27.3153 49.3902 27.4382 49.5398C27.5612 49.6895 27.7461 49.7857 27.992 49.8284C28.2517 49.8744 28.4581 49.853 28.6099 49.7654C28.7606 49.6777 28.8504 49.5612 28.876 49.4126C28.8931 49.3175 28.8782 49.2319 28.8354 49.155C28.7916 49.0791 28.7039 49.0042 28.5746 48.9315C28.4858 48.8813 28.2806 48.7862 27.9588 48.6429C27.5451 48.459 27.264 48.273 27.1165 48.0838C26.9091 47.8187 26.8342 47.5279 26.8888 47.2083C26.924 47.0031 27.016 46.8213 27.1624 46.6631C27.3099 46.5049 27.5002 46.398 27.7343 46.3424C27.9684 46.2868 28.2389 46.2858 28.5478 46.3403C29.0503 46.4279 29.4095 46.6054 29.6243 46.8737C29.8392 47.142 29.9204 47.4627 29.8691 47.838L29.0503 47.7236C29.0513 47.5098 29.0032 47.3484 28.907 47.2372C28.8098 47.1271 28.6473 47.0512 28.4206 47.0116C28.1865 46.971 27.9952 46.987 27.8455 47.0619C27.7493 47.1089 27.6916 47.1859 27.6734 47.2896C27.6563 47.3847 27.683 47.4734 27.7514 47.5547C27.838 47.6594 28.0711 47.7931 28.4484 47.9545C28.8258 48.1159 29.1005 48.2634 29.2705 48.396C29.4426 48.5296 29.5666 48.691 29.6425 48.8824C29.7195 49.0737 29.7355 49.2971 29.6906 49.5505C29.65 49.7803 29.5495 49.9856 29.3859 50.1641C29.2224 50.3426 29.0161 50.4602 28.7649 50.5169C28.5136 50.5746 28.2132 50.5714 27.8648 50.5105C27.357 50.4217 26.9871 50.2368 26.7562 49.9546C26.5242 49.6734 26.4216 49.3046 26.4473 48.8471Z" fill="#FFF100"/>
<path fill-rule="evenodd" clip-rule="evenodd" d="M24.6837 49.5527L23.9054 49.1903L23.976 48.2357L22.5457 47.5697L21.8711 48.2432L21.1079 47.8882L24.1524 44.9656L24.9157 45.3205L24.6837 49.5527ZM24.022 47.5226L24.1406 45.9726L23.0449 47.0683L24.022 47.5226Z" fill="#FFF100"/>
<path fill-rule="evenodd" clip-rule="evenodd" d="M17.458 45.3878L19.844 42.3273L22.1103 44.0933L21.7062 44.6107L20.0599 43.3279L19.5308 44.0077L21.0616 45.1997L20.6586 45.7171L19.1278 44.5241L18.481 45.3536L20.1872 46.6835L19.7841 47.2009L17.458 45.3878Z" fill="#FFF100"/>
<path d="M75.8746 15.266H81.7578V17.7698H79.4032V20.1438H81.6086V22.5244H79.4032V25.2746H81.9913V27.7784H75.8746V15.266Z" fill="#020087"/>
<path d="M89.9568 15.266L91.9741 27.7719H88.3611L88.186 25.5276H86.9211L86.7136 27.7719H83.0617L84.852 15.266H89.9568ZM88.0887 23.3027C87.9071 21.8887 87.732 20.1373 87.5503 18.0617C87.1936 20.4487 86.9666 22.2 86.8822 23.3027H88.0887Z" fill="#020087"/>
<path d="M100.608 19.0476H97.332V18.12C97.332 17.6854 97.2931 17.413 97.2087 17.2962C97.1244 17.1795 96.9817 17.1211 96.7871 17.1211C96.5731 17.1211 96.4109 17.1989 96.3006 17.3611C96.1969 17.5232 96.1385 17.7632 96.1385 18.0876C96.1385 18.5027 96.2033 18.8205 96.3266 19.0281C96.4433 19.2422 96.7741 19.4951 97.3255 19.7935C98.8952 20.6562 99.8812 21.3568 100.29 21.9081C100.698 22.4595 100.9 23.3481 100.9 24.574C100.9 25.4627 100.783 26.1243 100.556 26.5459C100.335 26.9676 99.9006 27.3243 99.252 27.6097C98.6033 27.8951 97.8509 28.0313 96.9882 28.0313C96.0412 28.0313 95.2369 27.8692 94.5687 27.5384C93.9071 27.2076 93.466 26.7924 93.265 26.28C93.0574 25.7676 92.9536 25.0476 92.9536 24.107V23.2897H96.2293V24.814C96.2293 25.2811 96.2747 25.5859 96.3655 25.7157C96.4628 25.8519 96.625 25.9168 96.8585 25.9168C97.092 25.9168 97.2671 25.8324 97.3774 25.6638C97.4942 25.4951 97.5525 25.2422 97.5525 24.9049C97.5525 24.1654 97.4423 23.6854 97.2282 23.4584C97.0077 23.2313 96.4563 22.8551 95.5806 22.3232C94.705 21.7849 94.1212 21.4022 93.8358 21.1557C93.5504 20.9157 93.3104 20.5784 93.1223 20.1503C92.9406 19.7222 92.8433 19.1773 92.8433 18.5157C92.8433 17.5557 92.9731 16.8551 93.239 16.4141C93.505 15.973 93.9396 15.6292 94.5298 15.3762C95.1201 15.1232 95.8336 15 96.6769 15C97.5914 15 98.3698 15.1362 99.012 15.4086C99.6606 15.6811 100.089 16.0249 100.296 16.4465C100.51 16.8616 100.614 17.5622 100.614 18.5546V19.0476H100.608Z" fill="#020087"/>
<path d="M109.98 15.266V17.7698H107.885V27.7719H104.356V17.7698H102.268V15.266H109.98Z" fill="#020087"/>
<path d="M124.225 19.0476H120.949V18.12C120.949 17.6854 120.91 17.413 120.826 17.2962C120.742 17.1795 120.599 17.1211 120.404 17.1211C120.19 17.1211 120.028 17.1989 119.918 17.3611C119.814 17.5232 119.762 17.7632 119.762 18.0876C119.762 18.5027 119.821 18.8205 119.944 19.0281C120.061 19.2422 120.391 19.4951 120.943 19.7935C122.513 20.6562 123.498 21.3568 123.907 21.9081C124.316 22.4595 124.517 23.3481 124.517 24.574C124.517 25.4627 124.4 26.1243 124.173 26.5459C123.946 26.9676 123.511 27.3243 122.869 27.6097C122.221 27.8951 121.468 28.0313 120.606 28.0313C119.658 28.0313 118.854 27.8692 118.186 27.5384C117.524 27.2076 117.083 26.7924 116.882 26.28C116.675 25.7676 116.571 25.0476 116.571 24.107V23.2897H119.847V24.814C119.847 25.2811 119.892 25.5859 119.983 25.7157C120.08 25.8519 120.242 25.9168 120.476 25.9168C120.709 25.9168 120.884 25.8324 120.995 25.6638C121.111 25.4951 121.17 25.2422 121.17 24.9049C121.17 24.1654 121.06 23.6854 120.846 23.4584C120.618 23.2313 120.074 22.8551 119.198 22.3232C118.322 21.7849 117.738 21.4022 117.453 21.1557C117.168 20.9157 116.934 20.5784 116.74 20.1503C116.558 19.7222 116.461 19.1773 116.461 18.5157C116.461 17.5557 116.59 16.8551 116.856 16.4141C117.122 15.973 117.557 15.6292 118.147 15.3762C118.737 15.1232 119.451 15 120.294 15C121.209 15 121.987 15.1362 122.629 15.4086C123.278 15.6811 123.706 16.0249 123.914 16.4465C124.128 16.8616 124.231 17.5622 124.231 18.5546V19.0476H124.225Z" fill="#020087"/>
<path d="M133.598 15.266V17.7698H131.502V27.7719H127.974V17.7698H125.885V15.266H133.598Z" fill="#020087"/>
<path d="M139.773 15.266L141.79 27.7719H138.177L138.002 25.5276H136.737L136.53 27.7719H132.878L134.668 15.266H139.773ZM137.905 23.3027C137.723 21.8887 137.548 20.1373 137.366 18.0617C137.01 20.4487 136.783 22.2 136.698 23.3027H137.905Z" fill="#020087"/>
<path d="M143.256 15.266H145.753C147.421 15.266 148.543 15.3244 149.126 15.4411C149.717 15.5579 150.197 15.8627 150.566 16.3557C150.943 16.8422 151.131 17.6141 151.131 18.6779C151.131 19.6509 151.001 20.306 150.735 20.6368C150.476 20.9741 149.957 21.1752 149.185 21.24C149.885 21.4022 150.352 21.6163 150.592 21.8822C150.832 22.1481 150.982 22.3946 151.033 22.6217C151.092 22.8422 151.124 23.4584 151.124 24.4703V27.7654H147.849V23.6076C147.849 22.9395 147.79 22.5244 147.673 22.3622C147.563 22.2 147.265 22.1222 146.778 22.1222V27.759H143.25V15.266H143.256ZM146.778 17.4065V20.1892C147.174 20.1892 147.453 20.1373 147.609 20.04C147.771 19.9363 147.849 19.6119 147.849 19.0606V18.373C147.849 17.9773 147.771 17.7179 147.615 17.5946C147.466 17.4649 147.187 17.4065 146.778 17.4065Z" fill="#020087"/>
<path d="M165.946 19.0476H162.67V18.12C162.67 17.6854 162.625 17.413 162.547 17.2962C162.462 17.1795 162.326 17.1211 162.125 17.1211C161.911 17.1211 161.749 17.1989 161.639 17.3611C161.535 17.5232 161.483 17.7632 161.483 18.0876C161.483 18.5027 161.541 18.8205 161.665 19.0281C161.781 19.2422 162.112 19.4951 162.663 19.7935C164.233 20.6562 165.219 21.3568 165.628 21.9081C166.036 22.4595 166.238 23.3481 166.238 24.574C166.238 25.4627 166.121 26.1243 165.894 26.5459C165.667 26.9676 165.232 27.3243 164.59 27.6097C163.941 27.8951 163.189 28.0313 162.326 28.0313C161.379 28.0313 160.575 27.8692 159.907 27.5384C159.245 27.2076 158.804 26.7924 158.603 26.28C158.395 25.7676 158.292 25.0476 158.292 24.107V23.2897H161.567V24.814C161.567 25.2811 161.613 25.5859 161.703 25.7157C161.801 25.8519 161.963 25.9168 162.196 25.9168C162.43 25.9168 162.605 25.8324 162.715 25.6638C162.832 25.4951 162.891 25.2422 162.891 24.9049C162.891 24.1654 162.78 23.6854 162.566 23.4584C162.339 23.2313 161.794 22.8551 160.919 22.3232C160.043 21.7849 159.459 21.4022 159.174 21.1557C158.888 20.9157 158.648 20.5784 158.46 20.1503C158.272 19.7222 158.181 19.1773 158.181 18.5157C158.181 17.5557 158.311 16.8551 158.577 16.4141C158.843 15.973 159.278 15.6292 159.868 15.3762C160.458 15.1232 161.172 15 162.015 15C162.929 15 163.708 15.1362 164.35 15.4086C164.999 15.6811 165.427 16.0249 165.634 16.4465C165.848 16.8616 165.952 17.5622 165.952 18.5546V19.0476H165.946Z" fill="#020087"/>
<path d="M176.318 15.266V27.7719H172.789V22.5179H171.732V27.7719H168.203V15.266H171.732V19.7352H172.789V15.266H176.318Z" fill="#020087"/>
<path d="M182.13 15.266V27.7719H178.601V15.266H182.13Z" fill="#020087"/>
<path d="M184.4 15.266H187.954C188.914 15.266 189.654 15.3373 190.166 15.4736C190.685 15.6098 191.074 15.8109 191.334 16.0768C191.593 16.3363 191.775 16.6606 191.859 17.0368C191.956 17.4065 192.002 17.9838 192.002 18.7687V19.8584C192.002 20.6563 191.911 21.24 191.736 21.6033C191.561 21.9665 191.23 22.2519 190.75 22.4465C190.276 22.6411 189.654 22.7384 188.882 22.7384H187.935V27.7719H184.406V15.266H184.4ZM187.928 17.4065V20.5914C188.026 20.5979 188.116 20.5979 188.188 20.5979C188.512 20.5979 188.733 20.5265 188.856 20.3838C188.986 20.2346 189.05 19.9298 189.05 19.4627V18.4379C189.05 18.0098 188.979 17.7309 188.83 17.6011C188.687 17.4714 188.389 17.4065 187.928 17.4065Z" fill="#020087"/>
<path d="M193.87 15.266H197.425C198.385 15.266 199.124 15.3373 199.637 15.4736C200.156 15.6098 200.545 15.8109 200.804 16.0768C201.064 16.3363 201.245 16.6606 201.33 17.0368C201.427 17.4065 201.472 17.9838 201.472 18.7687V19.8584C201.472 20.6563 201.382 21.24 201.207 21.6033C201.031 21.9665 200.701 22.2519 200.221 22.4465C199.747 22.6411 199.124 22.7384 198.352 22.7384H197.405V27.7719H193.877V15.266H193.87ZM197.399 17.4065V20.5914C197.496 20.5979 197.587 20.5979 197.658 20.5979C197.983 20.5979 198.203 20.5265 198.327 20.3838C198.456 20.2346 198.521 19.9298 198.521 19.4627V18.4379C198.521 18.0098 198.45 17.7309 198.307 17.6011C198.158 17.4714 197.853 17.4065 197.399 17.4065Z" fill="#020087"/>
<path d="M206.869 15.266V27.7719H203.34V15.266H206.869Z" fill="#020087"/>
<path d="M217.014 15.266V27.7719H213.92L212.084 22.0898V27.7719H209.133V15.266H212.084L214.062 20.8963V15.266H217.014Z" fill="#020087"/>
<path d="M227.392 19.8713H223.864V18.7362C223.864 18.0227 223.831 17.5751 223.766 17.3935C223.701 17.2119 223.539 17.1211 223.286 17.1211C223.066 17.1211 222.923 17.1989 222.845 17.3546C222.767 17.5103 222.728 17.9059 222.728 18.5416V24.5416C222.728 25.1059 222.767 25.4757 222.845 25.6508C222.923 25.8259 223.079 25.9103 223.312 25.9103C223.572 25.9103 223.74 25.813 223.831 25.6119C223.928 25.4108 223.974 25.0216 223.974 24.4378V22.9524H223.26V21.0519H227.392V27.7654H225.174L224.85 26.8703C224.61 27.2595 224.305 27.5449 223.935 27.7459C223.572 27.934 223.144 28.0313 222.644 28.0313C222.054 28.0313 221.496 27.9016 220.977 27.6357C220.465 27.3697 220.075 27.0389 219.803 26.6497C219.537 26.2605 219.368 25.8519 219.304 25.4238C219.239 24.9892 219.206 24.347 219.206 23.4843V19.7676C219.206 18.5741 219.278 17.7049 219.414 17.1665C219.557 16.6281 219.952 16.1286 220.614 15.6811C221.275 15.227 222.138 15 223.182 15C224.214 15 225.07 15.1946 225.758 15.5838C226.439 15.973 226.88 16.44 227.087 16.9849C227.295 17.5232 227.399 18.3016 227.399 19.3265V19.8713H227.392Z" fill="#020087"/>
<path d="M242.966 20.7211H239.444V18.5416C239.444 17.9059 239.405 17.5167 239.327 17.3611C239.256 17.1989 239.087 17.1211 238.834 17.1211C238.542 17.1211 238.361 17.2184 238.283 17.4065C238.205 17.5946 238.166 18.0097 238.166 18.6454V24.4508C238.166 25.0605 238.205 25.4562 238.283 25.6378C238.361 25.8259 238.536 25.9167 238.808 25.9167C239.068 25.9167 239.243 25.8259 239.321 25.6378C239.405 25.4497 239.444 25.0151 239.444 24.334V22.7643H242.973V23.2508C242.973 24.5416 242.875 25.4627 242.674 26.0011C242.48 26.5394 242.038 27.013 241.357 27.4216C240.683 27.8302 239.846 28.0313 238.854 28.0313C237.822 28.0313 236.966 27.8562 236.298 27.5124C235.63 27.1686 235.182 26.6886 234.968 26.0854C234.748 25.4757 234.644 24.5546 234.644 23.3286V19.6767C234.644 18.7751 234.676 18.1005 234.741 17.653C234.806 17.1989 235.007 16.7643 235.338 16.3492C235.675 15.934 236.136 15.6032 236.72 15.3697C237.31 15.1297 237.991 15.0065 238.756 15.0065C239.794 15.0065 240.65 15.1946 241.325 15.5643C242 15.934 242.447 16.4011 242.655 16.9524C242.869 17.5038 242.973 18.36 242.973 19.534V20.7211H242.966Z" fill="#020087"/>
<path d="M253.15 22.5892C253.15 23.8475 253.118 24.7362 253.053 25.2616C252.995 25.7805 252.794 26.2605 252.45 26.6886C252.112 27.1232 251.658 27.454 251.088 27.6875C250.51 27.9211 249.842 28.0378 249.077 28.0378C248.35 28.0378 247.695 27.9275 247.118 27.7135C246.541 27.493 246.08 27.1621 245.73 26.7275C245.379 26.293 245.172 25.813 245.101 25.3005C245.036 24.7881 245.003 23.8865 245.003 22.5957V20.4551C245.003 19.1967 245.036 18.3081 245.094 17.7892C245.159 17.2638 245.36 16.7838 245.697 16.3557C246.035 15.9211 246.495 15.5903 247.072 15.3567C247.65 15.1232 248.318 15.0065 249.083 15.0065C249.81 15.0065 250.458 15.1167 251.036 15.3373C251.619 15.5513 252.08 15.8821 252.437 16.3167C252.787 16.7513 252.995 17.2313 253.066 17.7438C253.131 18.2562 253.163 19.1578 253.163 20.4486V22.5892H253.15ZM249.622 18.4767C249.622 17.893 249.583 17.5232 249.511 17.3676C249.446 17.2054 249.304 17.1211 249.083 17.1211C248.902 17.1211 248.759 17.1859 248.655 17.3221C248.558 17.4519 248.512 17.8346 248.512 18.4832V24.3211C248.512 25.0475 248.545 25.4951 248.603 25.6638C248.668 25.8324 248.824 25.9167 249.057 25.9167C249.297 25.9167 249.453 25.8194 249.518 25.6248C249.583 25.4303 249.615 24.9632 249.615 24.2238V18.4767H249.622Z" fill="#020087"/>
<path d="M256.783 25.2228V27.772H254.227V25.2228H256.783Z" fill="#020087"/>
<path d="M260.519 25.3199V26.4421C260.519 27.0259 260.441 27.5124 260.292 27.8886C260.143 28.2648 259.877 28.5826 259.507 28.8486C259.137 29.1081 258.722 29.2832 258.249 29.374V28.4789C258.586 28.3037 258.774 28.0702 258.819 27.7783H258.249V25.3329H260.519V25.3199Z" fill="#020087"/>
<path d="M269.126 15.266V25.2682H271.273V27.7719H265.604V15.266H269.126Z" fill="#020087"/>
<path d="M278.837 15.266V17.7698H276.742V27.7719H273.213V17.7698H271.131V15.266H278.837Z" fill="#020087"/>
<path d="M280.497 15.266H283.137C284.843 15.266 285.991 15.3373 286.588 15.48C287.191 15.6227 287.652 15.8627 287.963 16.1936C288.275 16.5244 288.469 16.8941 288.547 17.2963C288.625 17.6984 288.664 18.4898 288.664 19.6768V24.0552C288.664 25.1773 288.605 25.9298 288.489 26.3125C288.378 26.6887 288.177 26.9871 287.892 27.2011C287.607 27.4152 287.256 27.5644 286.835 27.6487C286.413 27.733 285.784 27.7719 284.941 27.7719H280.491V15.266H280.497ZM284.026 17.4065V25.6314C284.532 25.6314 284.85 25.5406 284.967 25.3525C285.083 25.1644 285.142 24.6519 285.142 23.8152V18.9568C285.142 18.3925 285.122 18.0292 285.083 17.8671C285.044 17.7049 284.954 17.5946 284.817 17.5168C284.675 17.4454 284.409 17.4065 284.026 17.4065Z" fill="#020087"/>
<path d="M292.99 25.2228V27.772H290.435V25.2228H292.99Z" fill="#020087"/>
<path d="M79.1826 43.0411C79.5978 42.5351 80.0648 41.8541 80.5772 40.9784C80.8302 40.5503 81.0442 40.1481 81.2194 39.7849C81.414 39.3827 81.5437 39.0454 81.6151 38.786C81.1869 39.3503 80.7199 39.8692 80.2075 40.3492C79.6237 40.8941 79.2021 41.173 78.9491 41.173C78.3524 41.173 77.8399 40.9589 77.4053 40.5373C76.9902 40.1351 76.7826 39.6616 76.7826 39.1297C76.7826 37.6638 76.8994 36.4379 77.1394 35.4584C77.308 34.6995 77.6972 34.2843 78.3005 34.2065C79.3578 34.0703 79.6561 34.706 79.1956 36.1135C78.9945 36.7492 78.8259 37.2941 78.6961 37.7351C78.5859 38.1243 78.5015 38.4422 78.4432 38.6887C78.3978 38.8962 78.3718 39.0649 78.3524 39.2011C78.3459 39.253 78.3459 39.3049 78.3459 39.3568L78.3394 39.4735C78.3394 39.7265 78.3978 39.9081 78.5145 40.0184C78.5599 40.0573 78.6118 40.0897 78.6702 40.1092C78.7091 40.1222 78.7545 40.1287 78.7999 40.1287C79.2734 40.1287 80.0129 39.5514 81.0248 38.4033C81.5113 37.8519 81.9588 37.2551 82.374 36.626C82.828 35.9319 83.1913 35.2443 83.4637 34.5762C83.6323 34.1806 83.8659 33.986 84.1578 33.986C84.294 33.986 84.4626 34.0379 84.6507 34.1416C84.9491 34.2973 85.0983 34.5438 85.0983 34.8811C85.0983 35.1146 85.0334 35.3611 84.9037 35.6141C83.068 39.1752 81.4399 41.7827 80.0194 43.4368C79.5199 44.0141 79.0464 44.4357 78.5924 44.6951C78.2486 44.8962 77.9307 45 77.6518 45C77.2107 45 76.7632 44.6887 76.2961 44.0724C75.8745 43.4951 75.6605 43.0087 75.6605 42.613C75.6605 42.4249 75.7513 42.2173 75.9199 41.9903C76.3675 41.3935 76.6594 41.3481 76.8021 41.8541C76.8799 42.1395 77.1524 42.4573 77.6129 42.8076C78.0605 43.1514 78.4172 43.3265 78.6832 43.3265C78.761 43.3265 78.8324 43.307 78.9037 43.2746C78.9945 43.2357 79.0918 43.1578 79.1826 43.0411Z" fill="#4B4B4B"/>
<path d="M85.1241 38.0465C85.2409 38.0465 85.3511 38.053 85.4549 38.066C85.5911 38.0725 85.7079 38.0919 85.8117 38.1179C86.0711 38.1892 86.2009 38.306 86.2009 38.4746C86.2009 38.5719 86.1619 38.6952 86.0841 38.8508L85.8246 39.3438C85.8052 39.3762 85.7857 39.4022 85.7792 39.4216C85.189 40.427 84.8906 41.387 84.8906 42.3081C84.8906 42.6649 85.0398 42.8465 85.3317 42.8465C85.5717 42.8465 85.8117 42.7816 86.0452 42.6584C86.3371 42.5027 86.603 42.2498 86.83 41.9125C86.2009 41.3806 86.0906 40.7319 86.4992 39.9795C86.8819 39.266 87.3165 39.0649 87.8095 39.3762C87.9782 39.48 88.1014 39.6098 88.1663 39.7719C88.2117 39.8822 88.2311 40.0119 88.2311 40.1741C88.2311 41.1276 87.9587 41.8995 87.4203 42.4962C86.9079 43.0606 86.2592 43.3589 85.4744 43.3979C84.9879 43.4173 84.4625 43.2033 83.8982 42.7362C83.3079 42.2562 83.016 41.7698 83.016 41.2898C83.016 41.0173 83.0679 40.7254 83.1782 40.4141C83.269 40.1416 83.4052 39.8692 83.5673 39.5773C83.7036 39.3373 83.8528 39.1038 84.0279 38.8768C84.1706 38.6952 84.3003 38.546 84.4106 38.4292C84.683 38.1762 84.9165 38.0465 85.1241 38.0465Z" fill="#4B4B4B"/>
<path d="M93.2585 40.135C92.9602 40.4788 92.6813 40.7902 92.4348 41.0626C92.091 41.4388 91.7796 41.7631 91.4942 42.0356C91.144 42.3664 90.8391 42.6258 90.5731 42.801C90.2618 43.0085 90.0088 43.1123 89.8142 43.1123C89.6196 43.1123 89.451 42.9891 89.3018 42.7426C89.1526 42.4961 89.0813 42.2302 89.0813 41.9383C89.0813 41.5685 89.2823 40.8745 89.6845 39.8626C89.8661 39.4021 90.0348 39.0323 90.1969 38.7469C90.3786 38.4161 90.5277 38.2475 90.6315 38.228C90.8326 38.1956 91.0596 38.228 91.3061 38.3318C91.5785 38.4421 91.6758 38.5848 91.6045 38.7534C91.4683 39.0518 91.2996 39.5188 91.0856 40.1545C90.9753 40.4853 90.891 40.7772 90.8261 41.0237C90.7483 41.3156 90.7094 41.5296 90.7094 41.6658C90.9364 41.5426 91.2088 41.335 91.5396 41.0431C91.8056 40.8161 92.1104 40.5242 92.4542 40.1804L93.2196 39.3891C93.2456 39.3631 93.2585 39.3437 93.265 39.3437L93.7904 38.8053C93.9656 38.6561 94.1277 38.5848 94.2769 38.5848C94.4845 38.5848 94.731 38.721 95.0099 38.9999C95.185 39.1621 95.2694 39.3696 95.2694 39.6226C95.2694 39.7653 95.2434 39.895 95.198 40.0053C95.1591 40.1415 95.0813 40.3037 94.9645 40.4983L94.7894 40.7707C94.705 40.9004 94.6337 41.0042 94.5883 41.0885C94.4196 41.361 94.264 41.6399 94.1277 41.9188C93.9526 42.2885 93.7904 42.6972 93.6413 43.1448C93.6218 43.1902 93.6088 43.2356 93.5958 43.281L93.518 43.6118C93.4791 43.735 93.3948 43.7934 93.265 43.7934C93.2067 43.7934 93.1288 43.7545 93.0315 43.6767C92.9212 43.5923 92.8175 43.4821 92.7267 43.3458C92.4802 42.9891 92.3829 42.5869 92.4348 42.1523C92.4542 41.9967 92.5645 41.6983 92.7526 41.2637C92.8888 40.9199 93.0575 40.5437 93.2585 40.135Z" fill="#4B4B4B"/>
<path d="M99.6994 40.226C99.5632 40.226 99.3556 40.3492 99.0767 40.5957C98.8367 40.8098 98.5643 41.0887 98.2529 41.4519C97.6173 42.1979 97.2345 42.7168 97.1178 43.0022C97.027 43.2163 96.9167 43.3201 96.8 43.3201C96.7091 43.3201 96.5924 43.2617 96.4432 43.1384C96.1189 42.866 95.9567 42.5222 95.9567 42.1071C95.9567 41.9514 96.0281 41.666 96.1643 41.2638C96.2875 40.8941 96.4562 40.479 96.6637 40.0119C96.8648 39.5514 97.0659 39.1363 97.2605 38.7665C97.4681 38.3709 97.6302 38.0984 97.76 37.9492C97.8962 37.7806 98.0454 37.7028 98.201 37.7028C98.3502 37.7028 98.5124 37.7871 98.7005 37.9492C98.8886 38.1179 98.9535 38.3384 98.9016 38.6109C98.8951 38.6628 98.8497 38.773 98.7783 38.9482L98.5318 39.5125C98.4216 39.7784 98.3308 39.999 98.2594 40.1741C98.1621 40.4206 98.0972 40.6217 98.0583 40.7774C98.227 40.5763 98.5513 40.2584 99.0313 39.8238C99.4724 39.4282 99.7967 39.1557 100.004 39.0001C100.393 38.7147 100.796 38.6368 101.204 38.7601C101.6 38.8833 101.795 39.1233 101.795 39.4801C101.795 40.0444 101.671 40.5244 101.425 40.9265C101.178 41.3287 100.893 41.5233 100.569 41.5233C100.29 41.5233 100.095 41.426 99.9783 41.2249C99.894 41.0822 99.8551 40.8811 99.8551 40.6346C99.8681 40.3622 99.8097 40.226 99.6994 40.226Z" fill="#4B4B4B"/>
<path d="M110.175 35.9643C109.637 35.9838 109.17 36.0227 108.767 36.0811C108.294 36.146 107.892 36.2432 107.567 36.36C107.535 36.7038 107.379 36.8789 107.1 36.8789C106.795 36.8789 106.64 36.7362 106.64 36.4573C106.64 36.2368 106.77 36.0292 107.023 35.8346C107.587 35.387 108.184 35.0238 108.8 34.7578C109.358 34.5178 109.915 34.3557 110.467 34.2714C111.394 34.1481 112.478 34.0833 113.71 34.0833C114.482 34.0833 114.865 34.3492 114.865 34.8811C114.865 35.173 114.774 35.4324 114.579 35.6724C114.378 35.9189 114.132 36.0422 113.84 36.0422L112.62 35.9968C112.406 35.9903 112.192 35.9838 111.978 35.9773C111.589 36.7038 111.161 37.5276 110.707 38.4422C110.467 38.9287 110.253 39.3632 110.071 39.7395C109.87 40.1611 109.714 40.4984 109.611 40.7514C109.526 40.9524 109.423 41.1795 109.28 41.426L108.488 42.6908C108.359 42.9049 108.268 43.08 108.21 43.2162C108.158 43.3265 108.106 43.4108 108.041 43.4692C107.983 43.5211 107.924 43.547 107.872 43.547C107.684 43.547 107.613 43.4432 107.671 43.2422L107.736 42.9373C107.743 42.9114 107.743 42.8919 107.749 42.8789L107.885 42.2562C107.97 41.8865 108.041 41.6141 108.093 41.4519L108.307 40.7773C108.45 40.3297 108.605 39.8822 108.767 39.4281C108.981 38.8249 109.189 38.2605 109.403 37.7222C109.688 37.0735 109.935 36.4832 110.175 35.9643Z" fill="#4B4B4B"/>
<path d="M115.429 37.0412C114.962 37.2423 114.729 37.1839 114.729 36.8596C114.729 36.7169 114.768 36.5612 114.852 36.3925C114.995 36.0877 115.124 35.8671 115.235 35.7244C115.39 35.5169 115.643 35.2898 115.994 35.0369C116.383 34.7644 116.856 34.5309 117.427 34.3298C118.043 34.1093 118.569 33.999 119.016 33.999C120.002 33.999 120.8 34.2974 121.403 34.9006C121.981 35.4779 122.24 36.159 122.182 36.9569C122.149 37.3655 122.013 37.7352 121.773 38.0596C121.559 38.3515 121.267 38.6044 120.897 38.825C120.573 39.0196 120.203 39.1752 119.788 39.305C119.431 39.4152 119.068 39.4996 118.692 39.545L119.075 40.4012C119.217 40.6996 119.354 40.9655 119.47 41.199C119.756 41.7439 120.002 42.1071 120.197 42.2758C120.294 42.3601 120.372 42.4055 120.437 42.4055C120.502 42.4055 120.612 42.2888 120.774 42.0552C120.884 41.8996 121.021 41.8282 121.17 41.8282C121.442 41.8282 121.578 42.0228 121.578 42.4185C121.578 42.6974 121.481 42.9374 121.287 43.145C121.176 43.2747 120.995 43.3396 120.755 43.3396C120.456 43.3396 120.132 43.2358 119.788 43.0217C119.165 42.639 118.465 42.0098 117.693 41.1277C117.33 40.7125 117.031 40.3233 116.791 39.9601C116.532 39.5709 116.383 39.2531 116.324 39.0066L115.948 39.8239C115.812 40.0963 115.695 40.3558 115.598 40.5893C115.494 40.8163 115.371 41.0628 115.228 41.3223C115.118 41.5233 114.988 41.7504 114.839 42.0098L114.216 43.0606C114.158 43.1709 114.099 43.2487 114.035 43.3071C113.983 43.3525 113.931 43.372 113.885 43.372C113.749 43.372 113.697 43.2747 113.73 43.0801C113.885 42.4444 114.054 41.8087 114.249 41.1796C114.417 40.6088 114.605 40.0444 114.813 39.4801C114.995 38.9806 115.183 38.4942 115.384 38.0142C115.559 37.599 115.741 37.1969 115.922 36.8012L115.429 37.0412ZM117.719 36.1979C117.343 36.905 116.979 37.6444 116.629 38.4098C118.011 38.4747 119.159 38.332 120.08 37.9882C120.949 37.6574 121.384 37.2488 121.384 36.7558C121.384 36.2952 120.592 36.0682 119.016 36.0682C118.562 36.0617 118.128 36.1071 117.719 36.1979Z" fill="#4B4B4B"/>
<path d="M129.025 38.5394C128.61 39.1232 128.227 39.6356 127.89 40.0767C127.475 40.6086 127.105 41.0561 126.774 41.4259C125.976 42.308 125.373 42.7556 124.977 42.7556C124.504 42.7556 124.089 42.6194 123.732 42.3405C123.284 41.9967 123.057 41.5037 123.057 40.868C123.057 39.9275 123.233 38.8637 123.589 37.6832C123.771 37.0929 123.972 36.5545 124.206 36.0745C124.458 35.5491 124.724 35.1275 125.016 34.8032C125.406 34.3426 125.86 34.1156 126.398 34.1156C126.618 34.1156 126.813 34.148 126.988 34.2129C127.228 34.2972 127.345 34.427 127.345 34.5956C127.345 34.8291 127.15 35.1859 126.768 35.6594C126.398 36.1005 125.944 36.9437 125.393 38.2021C125.127 38.8118 124.919 39.3697 124.757 39.8756C124.575 40.4464 124.484 40.894 124.484 41.2248C124.484 41.6269 124.569 41.8215 124.731 41.8215C124.763 41.8215 124.828 41.7891 124.926 41.7242C125.036 41.6594 125.166 41.5556 125.328 41.4259C125.73 41.0951 126.229 40.6345 126.82 40.0313C127.397 39.4475 128.052 38.6432 128.772 37.6118C129.122 37.1253 129.421 36.6713 129.661 36.2497C129.933 35.7956 130.115 35.4259 130.212 35.147C130.361 34.7188 130.608 34.4594 130.945 34.3751C131.282 34.2972 131.607 34.4205 131.918 34.7513C132.113 34.9588 132.21 35.1794 132.21 35.4259C132.21 35.7437 132.009 36.2172 131.607 36.8464C131.172 37.5275 130.673 38.5588 130.115 39.9405C129.842 40.6215 129.628 41.2313 129.466 41.7567C129.284 42.3599 129.187 42.814 129.187 43.1253L129.194 43.4691C129.194 43.5924 129.187 43.6961 129.181 43.7675C129.148 43.9556 129.064 44.0529 128.928 44.0529C128.759 44.0529 128.597 43.8583 128.448 43.4756C128.279 43.0475 128.201 42.5351 128.201 41.9318C128.201 41.4129 128.286 40.8356 128.461 40.1999C128.526 39.947 128.616 39.668 128.72 39.3632C128.804 39.1491 128.902 38.8767 129.025 38.5394Z" fill="#4B4B4B"/>
<path d="M137.723 35.6205C137.554 35.601 137.425 35.5945 137.334 35.5945C136.64 35.5945 135.972 35.7113 135.323 35.9513C134.674 36.1913 134.344 36.4442 134.344 36.6972C134.344 36.9113 134.726 37.2096 135.498 37.6053C135.79 37.761 136.14 37.9232 136.549 38.1048L137.574 38.5459C138.378 38.8702 138.787 39.5059 138.787 40.4529C138.787 40.7383 138.761 40.9913 138.722 41.2248C138.599 41.9059 138.145 42.4572 137.373 42.8659C136.718 43.2096 136.03 43.3848 135.31 43.3848C134.123 43.3848 133.209 43.1513 132.573 42.6842C132.275 42.4702 132.015 42.1588 131.788 41.7502C131.574 41.3805 131.47 41.0886 131.47 40.8615C131.47 40.6669 131.567 40.5696 131.775 40.5696C131.911 40.5696 132.093 40.6215 132.326 40.7253C132.813 40.9588 133.371 41.134 133.993 41.2507C134.558 41.348 135.155 41.3999 135.797 41.3999C137.36 41.3999 138.138 41.1664 138.138 40.6994C138.138 40.5048 137.911 40.3037 137.451 40.1091C136.614 39.7394 135.855 39.3761 135.18 39.0259C134.409 38.6107 133.877 38.2734 133.585 38.0075C133.267 37.4042 133.196 36.7945 133.371 36.1783C133.552 35.9513 133.773 35.7307 134.039 35.5167C134.363 35.2507 134.726 35.0172 135.135 34.8226C135.615 34.5891 136.134 34.4075 136.698 34.2842C137.347 34.1415 138.034 34.0702 138.761 34.0702C139.157 34.0702 139.468 34.2324 139.689 34.5567C139.89 34.8421 139.993 35.1794 139.993 35.5751C139.993 36.1524 139.831 36.5351 139.507 36.7232C139.273 36.8594 139.098 36.9307 138.982 36.9307C138.852 36.9307 138.696 36.8399 138.514 36.6518C138.378 36.5156 138.236 36.3534 138.093 36.1524C138.041 36.0745 137.976 35.9902 137.905 35.8864L137.769 35.6918C137.743 35.6464 137.73 35.6205 137.723 35.6205Z" fill="#4B4B4B"/>
<path d="M144.553 35.9643C144.015 35.9838 143.548 36.0227 143.146 36.0811C142.672 36.146 142.27 36.2432 141.946 36.36C141.907 36.7038 141.758 36.8789 141.479 36.8789C141.174 36.8789 141.018 36.7362 141.018 36.4573C141.018 36.2368 141.148 36.0292 141.401 35.8346C141.965 35.387 142.562 35.0238 143.178 34.7578C143.736 34.5178 144.294 34.3557 144.845 34.2714C145.773 34.1481 146.856 34.0833 148.088 34.0833C148.86 34.0833 149.249 34.3492 149.249 34.8811C149.249 35.173 149.152 35.4324 148.964 35.6724C148.763 35.9189 148.517 36.0422 148.225 36.0422L147.005 35.9968C146.791 35.9903 146.577 35.9838 146.363 35.9773C145.974 36.7038 145.546 37.5276 145.092 38.4422C144.852 38.9287 144.638 39.3632 144.456 39.7395C144.255 40.1611 144.099 40.4984 143.995 40.7514C143.911 40.9524 143.807 41.1795 143.665 41.426L142.867 42.6908C142.737 42.9049 142.646 43.08 142.588 43.2162C142.536 43.3265 142.484 43.4108 142.419 43.4692C142.361 43.5211 142.302 43.547 142.251 43.547C142.062 43.547 141.998 43.4432 142.049 43.2422L142.114 42.9373C142.121 42.9114 142.121 42.8919 142.127 42.8789L142.264 42.2562C142.348 41.8865 142.419 41.6141 142.471 41.4519L142.685 40.7773C142.828 40.3297 142.984 39.8822 143.146 39.4281C143.353 38.8249 143.567 38.2605 143.781 37.7222C144.067 37.0735 144.313 36.4832 144.553 35.9643Z" fill="#4B4B4B"/>
<path d="M151.176 42.107C151.176 41.9773 151.26 41.7048 151.436 41.2832C151.585 40.9265 151.779 40.4919 152.019 39.9989C152.551 38.9027 152.914 38.2411 153.109 38.0205C153.245 37.8584 153.388 37.7805 153.531 37.7805C153.693 37.7805 153.861 37.8584 154.043 38.0205C154.166 38.1308 154.257 38.2475 154.316 38.3708C154.335 38.4162 154.348 38.4616 154.354 38.507C154.361 38.5394 154.361 38.5719 154.361 38.6043C154.361 38.6692 154.335 38.7729 154.277 38.9286C154.238 39.0454 154.173 39.214 154.089 39.4281L153.66 40.5243L154.354 39.9794C154.452 39.9016 154.543 39.8367 154.614 39.7784C155.049 39.4605 155.366 39.2984 155.554 39.2984C155.762 39.2984 155.97 39.3892 156.158 39.5578C156.352 39.7329 156.443 39.9146 156.437 40.0962C156.437 40.174 156.411 40.2973 156.359 40.4724L156.255 40.7902C156.249 40.8162 156.242 40.8421 156.236 40.8551C156.223 40.907 156.21 40.9459 156.197 40.9848C156.132 41.1989 156.086 41.3675 156.06 41.4908C156.028 41.6529 156.028 41.7697 156.054 41.8346C156.164 41.7827 156.398 41.614 156.767 41.3416L157.286 40.9589C157.507 40.7967 157.701 40.654 157.87 40.5373C158.026 40.427 158.207 40.3557 158.428 40.3102C158.597 40.2713 158.791 40.2519 158.999 40.2519C159.278 40.2519 159.505 40.2778 159.68 40.3232C159.823 40.3621 159.933 40.414 160.004 40.4854C160.056 40.5373 160.089 40.6021 160.108 40.667V40.8032C160.108 41.3675 159.907 41.9254 159.511 42.4897C159.116 43.054 158.739 43.32 158.376 43.294C158.091 43.2681 157.883 43.2227 157.753 43.1513C157.656 43.0994 157.611 43.0281 157.611 42.9438C157.611 42.9243 157.624 42.8724 157.65 42.7946C157.656 42.7751 157.663 42.7297 157.682 42.6713L157.721 42.5351C157.792 42.2821 157.831 42.094 157.831 41.9773V41.8994C157.825 41.8605 157.812 41.8346 157.792 41.8216C157.766 41.7957 157.727 41.7827 157.669 41.7957C157.604 41.8021 157.526 41.8281 157.436 41.8735C157.351 41.9124 157.196 41.9967 156.975 42.1265L156.832 42.2043C156.774 42.2432 156.722 42.2692 156.683 42.2886L156.378 42.4702C156.138 42.6065 155.937 42.7102 155.788 42.7816C155.587 42.8659 155.444 42.9113 155.347 42.9113C155.074 42.9113 154.821 42.7297 154.594 42.3665C154.4 42.0551 154.296 41.7762 154.296 41.5362C154.296 41.2248 154.354 40.8875 154.478 40.5113C154.225 40.6475 153.823 41.0302 153.284 41.6659C152.752 42.2821 152.441 42.7102 152.35 42.9567C152.259 43.1708 152.156 43.2746 152.032 43.2746C151.941 43.2746 151.825 43.2162 151.676 43.0929C151.351 42.8075 151.176 42.4832 151.176 42.107Z" fill="#4B4B4B"/>
<path d="M162.339 42.1849C162.599 42.133 162.91 42.0162 163.28 41.8411C163.591 41.6919 163.941 41.5038 164.331 41.2703L165.317 40.6346L166.088 40.1157C166.575 39.7849 166.958 39.7135 167.25 39.9081C167.405 40.0054 167.535 40.1157 167.639 40.2389C167.775 40.4076 167.84 40.5697 167.84 40.7384C167.84 40.8616 167.801 40.9849 167.717 41.1081C167.548 41.3611 167.327 41.7697 167.036 42.3341C166.899 42.613 166.783 42.853 166.692 43.0476C166.588 43.2746 166.53 43.4368 166.517 43.5276C166.504 43.6249 166.445 43.6768 166.348 43.6768C166.121 43.6768 165.907 43.547 165.693 43.2941C165.466 43.0087 165.356 42.6908 165.356 42.3211C165.356 42.0811 165.394 41.8346 165.466 41.5687C165.492 41.4649 165.524 41.3676 165.563 41.2703C165.589 41.1924 165.621 41.1211 165.647 41.0692L164.927 41.6076C164.545 41.893 164.194 42.1395 163.864 42.3535C163.436 42.6389 163.066 42.8595 162.754 43.0151C162.372 43.2097 162.086 43.307 161.885 43.307C161.587 43.307 161.34 43.1643 161.139 42.8854C160.964 42.6324 160.88 42.373 160.88 42.0941C160.88 41.6919 160.977 41.3546 161.172 41.0692C161.781 40.1416 162.391 39.4022 162.994 38.8508C163.701 38.1957 164.344 37.8649 164.908 37.8649C165.148 37.8649 165.381 37.9622 165.596 38.1568C165.777 38.3254 165.9 38.5005 165.959 38.6951C166.05 39.013 166.024 39.2141 165.887 39.2854C165.842 39.3049 165.79 39.3243 165.738 39.3243C165.719 39.3308 165.693 39.3308 165.667 39.3373L165.453 39.3568C165.401 39.3697 165.343 39.3892 165.284 39.4151C164.882 39.6162 164.402 39.9665 163.831 40.4659C163.52 40.7384 163.241 41.0108 162.994 41.2832C162.716 41.6076 162.501 41.9059 162.339 42.1849Z" fill="#4B4B4B"/>
<path d="M172.588 39.8693C172.634 39.9341 172.66 40.0184 172.673 40.1157L172.841 40.9525C172.939 41.413 173.036 41.8217 173.14 42.1784C173.276 42.652 173.406 43.0282 173.535 43.2876C173.691 43.6055 173.847 43.7676 173.996 43.7676C174.067 43.7676 174.171 43.7093 174.301 43.5925C174.43 43.4693 174.554 43.4109 174.664 43.4109C174.885 43.4109 174.995 43.5471 174.995 43.826C174.995 43.9817 174.93 44.1049 174.8 44.1957C174.593 44.332 174.372 44.4033 174.126 44.4033C173.652 44.4033 173.146 44.1439 172.595 43.6314C171.998 43.0736 171.525 42.3536 171.168 41.4649L170.007 42.892C169.825 43.106 169.689 43.2682 169.598 43.372C169.488 43.4952 169.416 43.5536 169.39 43.5536C168.949 43.5536 168.729 43.333 168.729 42.8984C168.729 42.3925 168.865 41.679 169.144 40.7709C169.267 40.3687 169.41 39.9212 169.585 39.4412C169.747 39.0066 169.929 38.546 170.13 38.053C170.312 37.6055 170.513 37.1449 170.72 36.6649C170.908 36.2433 171.103 35.8087 171.304 35.3741C171.486 34.9914 171.667 34.6152 171.849 34.2325C172.005 33.9212 172.147 33.6163 172.29 33.3374C172.51 32.9093 172.783 32.6887 173.12 32.6887C173.321 32.6887 173.555 32.7601 173.814 32.9093C174.022 33.0195 174.113 33.2206 174.1 33.532C174.08 33.8044 173.989 34.0898 173.814 34.3882L171.537 38.0271C171.272 38.4747 171.025 38.8898 170.811 39.2725C170.571 39.7071 170.357 40.1028 170.182 40.453C169.767 41.2703 169.54 41.8541 169.501 42.2109C169.585 42.1655 169.76 42.0163 170.039 41.7503L170.947 40.8422L170.843 40.4595C170.837 40.4076 170.83 40.3428 170.83 40.2779C170.83 39.986 171.038 39.759 171.46 39.5903C171.745 39.4801 172.005 39.4671 172.225 39.5514L173.328 38.4228C173.581 38.1633 173.879 38.053 174.223 38.0855C174.508 38.1179 174.709 38.2087 174.826 38.3709C174.878 38.4357 174.923 38.5849 174.962 38.8314C174.995 39.0584 175.008 39.3049 175.008 39.5579C175.008 39.9017 174.982 40.1287 174.943 40.2325C174.859 40.4076 174.638 40.5633 174.262 40.693C173.879 40.8163 173.607 40.8293 173.432 40.732C173.354 40.6801 173.302 40.5957 173.269 40.4595C173.25 40.3687 173.23 40.239 173.224 40.0703C173.205 39.7266 173.159 39.5514 173.088 39.5449C173.01 39.5255 172.841 39.6357 172.588 39.8693Z" fill="#4B4B4B"/>
<path d="M175.864 41.0431C175.708 41.0561 175.604 41.0431 175.533 41.0042C175.488 40.9718 175.468 40.9329 175.468 40.8745C175.468 40.8096 175.488 40.7383 175.533 40.6604L175.663 40.4788C175.702 40.4269 175.766 40.3815 175.851 40.3426C175.955 40.2907 176.091 40.2453 176.253 40.2129C176.623 39.6161 177.142 39.0842 177.797 38.6107C178.303 38.2669 178.854 38.0918 179.451 38.0918C179.717 38.0918 179.931 38.1437 180.093 38.2475C180.3 38.3837 180.404 38.5977 180.404 38.8896C180.404 39.1686 180.268 39.4345 180.002 39.7004C179.775 39.921 179.451 40.1286 179.036 40.3231C178.685 40.4853 178.303 40.6215 177.888 40.7318C177.518 40.8356 177.193 40.9004 176.921 40.9199C176.908 40.9394 176.882 40.9783 176.85 41.0302L176.668 41.3091C176.59 41.4323 176.551 41.5231 176.551 41.5945C176.551 41.7696 176.83 41.8604 177.395 41.8604C177.907 41.8604 178.458 41.7696 179.042 41.588C179.749 41.374 180.359 41.0691 180.878 40.6734C181.189 40.4334 181.397 40.3102 181.507 40.3167C181.591 40.3167 181.637 40.414 181.637 40.6021C181.637 40.8745 181.585 41.134 181.481 41.3804C181.403 41.5556 181.28 41.7696 181.105 42.0226C180.806 42.4507 180.3 42.8075 179.587 43.0929C178.88 43.3783 178.153 43.521 177.421 43.521C176.986 43.521 176.603 43.3394 176.253 42.9761C175.916 42.6258 175.747 42.2496 175.747 41.8475C175.741 41.5621 175.779 41.3026 175.864 41.0431Z" fill="#4B4B4B"/>
<path d="M186.125 37.4238C186.398 37.4238 186.618 37.56 186.793 37.839C186.93 38.066 186.994 38.2865 186.994 38.5136C186.994 38.6952 186.865 38.8509 186.605 38.9806L186.508 39.0195L186.3 39.1168C186.261 39.1363 186.223 39.1557 186.184 39.1687C186.002 39.253 185.84 39.3438 185.697 39.4411C185.386 39.6552 185.081 39.8822 184.789 40.1287C184.627 40.2649 184.504 40.3752 184.413 40.4725C184.315 40.5827 184.264 40.6541 184.264 40.6995C184.264 40.7773 184.322 40.8811 184.445 41.0109L184.744 41.2833C184.795 41.3287 184.834 41.3611 184.86 41.3871C185.042 41.5492 185.178 41.6854 185.262 41.7957C185.386 41.9514 185.451 42.1006 185.451 42.2498C185.451 42.626 185.185 42.9763 184.653 43.3006C184.192 43.586 183.777 43.7222 183.42 43.7222C183.115 43.7222 182.856 43.6573 182.648 43.5341C182.571 43.4887 182.499 43.4303 182.441 43.3654C182.415 43.346 182.389 43.3136 182.363 43.2876L182.305 43.2163C182.259 43.1644 182.201 43.0671 182.136 42.9373C182.097 42.8725 182.071 42.8141 182.045 42.7622C182.026 42.7038 182.013 42.6584 182.013 42.6195C182.013 42.4963 182.097 42.4119 182.259 42.373C183.051 42.159 183.686 41.8606 184.16 41.4779C183.381 41.0498 182.986 40.693 182.986 40.4206C182.986 39.746 183.362 39.0714 184.114 38.3968C184.834 37.7482 185.502 37.4238 186.125 37.4238Z" fill="#4B4B4B"/>
<path d="M192.385 38.0465C192.502 38.0465 192.612 38.053 192.716 38.066C192.852 38.0725 192.969 38.0919 193.072 38.1179C193.332 38.1892 193.461 38.306 193.461 38.4746C193.461 38.5719 193.423 38.6952 193.345 38.8508L193.085 39.3438C193.059 39.3762 193.046 39.4022 193.04 39.4216C192.45 40.427 192.151 41.387 192.151 42.3081C192.151 42.6649 192.3 42.8465 192.592 42.8465C192.832 42.8465 193.072 42.7816 193.306 42.6584C193.598 42.5027 193.864 42.2498 194.091 41.9125C193.462 41.3806 193.351 40.7319 193.76 39.9795C194.143 39.266 194.577 39.0649 195.07 39.3762C195.239 39.48 195.362 39.6098 195.427 39.7719C195.472 39.8822 195.492 40.0119 195.492 40.1741C195.492 41.1276 195.219 41.8995 194.687 42.4962C194.175 43.0606 193.526 43.3589 192.742 43.3979C192.255 43.4173 191.73 43.2033 191.165 42.7362C190.575 42.2562 190.283 41.7698 190.283 41.2898C190.283 41.0173 190.335 40.7254 190.445 40.4141C190.543 40.1416 190.672 39.8692 190.834 39.5773C190.971 39.3373 191.12 39.1038 191.295 38.8768C191.438 38.6952 191.567 38.546 191.678 38.4292C191.944 38.1762 192.177 38.0465 192.385 38.0465Z" fill="#4B4B4B"/>
<path d="M200.519 40.135C200.22 40.4788 199.941 40.7902 199.695 41.0626C199.351 41.4388 199.04 41.7631 198.754 42.0356C198.404 42.3664 198.099 42.6258 197.833 42.801C197.522 43.0085 197.269 43.1123 197.074 43.1123C196.88 43.1123 196.711 42.9891 196.562 42.7426C196.413 42.4961 196.341 42.2302 196.341 41.9383C196.341 41.5685 196.542 40.8745 196.945 39.8626C197.126 39.4021 197.295 39.0323 197.457 38.7469C197.639 38.4161 197.788 38.2475 197.892 38.228C198.093 38.1956 198.32 38.228 198.566 38.3318C198.839 38.4421 198.936 38.5848 198.865 38.7534C198.728 39.0518 198.56 39.5188 198.346 40.1545C198.235 40.4853 198.151 40.7772 198.086 41.0237C198.008 41.3156 197.969 41.5296 197.969 41.6658C198.196 41.5426 198.469 41.335 198.8 41.0431C199.066 40.8161 199.371 40.5242 199.714 40.1804L200.48 39.3891C200.499 39.3631 200.519 39.3437 200.525 39.3437L201.051 38.8053C201.226 38.6561 201.388 38.5848 201.537 38.5848C201.751 38.5848 201.991 38.721 202.27 38.9999C202.445 39.1621 202.529 39.3696 202.529 39.6226C202.529 39.7653 202.504 39.895 202.458 40.0053C202.419 40.1415 202.341 40.3037 202.225 40.4983L202.049 40.7707C201.965 40.9004 201.9 41.0042 201.848 41.0885C201.68 41.361 201.524 41.6399 201.388 41.9188C201.213 42.2885 201.051 42.6972 200.901 43.1448C200.882 43.1902 200.869 43.2356 200.856 43.281L200.772 43.6118C200.733 43.735 200.648 43.7934 200.519 43.7934C200.46 43.7934 200.382 43.7545 200.285 43.6767C200.175 43.5923 200.071 43.4821 199.98 43.3458C199.734 42.9891 199.636 42.5869 199.688 42.1523C199.708 41.9967 199.818 41.6983 200.006 41.2637C200.149 40.9199 200.318 40.5437 200.519 40.135Z" fill="#4B4B4B"/>
<path d="M206.953 40.226C206.817 40.226 206.61 40.3492 206.331 40.5957C206.091 40.8098 205.818 41.0887 205.507 41.4519C204.871 42.1979 204.488 42.7168 204.365 43.0022C204.274 43.2163 204.164 43.3201 204.047 43.3201C203.957 43.3201 203.84 43.2617 203.691 43.1384C203.366 42.866 203.204 42.5222 203.204 42.1071C203.204 41.9514 203.276 41.666 203.412 41.2638C203.535 40.8941 203.704 40.479 203.911 40.0119C204.112 39.5514 204.313 39.1363 204.508 38.7665C204.716 38.3709 204.878 38.0984 205.007 37.9492C205.144 37.7806 205.293 37.7028 205.448 37.7028C205.598 37.7028 205.76 37.7871 205.948 37.9492C206.136 38.1179 206.201 38.3384 206.149 38.6109C206.143 38.6628 206.097 38.773 206.026 38.9482L205.779 39.5125C205.669 39.7784 205.578 39.999 205.507 40.1741C205.416 40.4206 205.345 40.6217 205.306 40.7774C205.474 40.5763 205.799 40.2584 206.279 39.8238C206.72 39.4282 207.044 39.1557 207.252 39.0001C207.641 38.7147 208.043 38.6368 208.452 38.7601C208.847 38.8833 209.042 39.1233 209.042 39.4801C209.042 40.0444 208.919 40.5244 208.672 40.9265C208.426 41.3287 208.14 41.5233 207.816 41.5233C207.537 41.5233 207.343 41.426 207.226 41.2249C207.148 41.0822 207.103 40.8811 207.103 40.6346C207.122 40.3622 207.07 40.226 206.953 40.226Z" fill="#4B4B4B"/>
<path d="M218.779 35.6205C218.61 35.601 218.48 35.5945 218.389 35.5945C217.695 35.5945 217.027 35.7113 216.379 35.9513C215.73 36.1913 215.399 36.4442 215.399 36.6972C215.399 36.9113 215.782 37.2096 216.547 37.6053C216.839 37.761 217.189 37.9232 217.598 38.1048L218.623 38.5459C219.434 38.8702 219.836 39.5059 219.836 40.4529C219.836 40.7383 219.81 40.9913 219.771 41.2248C219.648 41.9059 219.194 42.4572 218.422 42.8659C217.767 43.2096 217.079 43.3848 216.359 43.3848C215.172 43.3848 214.257 43.1513 213.622 42.6842C213.323 42.4702 213.064 42.1588 212.83 41.7502C212.623 41.3805 212.513 41.0886 212.513 40.8615C212.513 40.6669 212.616 40.5696 212.817 40.5696C212.954 40.5696 213.135 40.6215 213.369 40.7253C213.855 40.9588 214.413 41.134 215.036 41.2507C215.6 41.348 216.197 41.3999 216.839 41.3999C218.402 41.3999 219.181 41.1664 219.181 40.6994C219.181 40.5048 218.954 40.3037 218.493 40.1091C217.656 39.7394 216.897 39.3761 216.223 39.0259C215.451 38.6107 214.919 38.2734 214.627 38.0075C214.309 37.4042 214.238 36.7945 214.413 36.1783C214.595 35.9513 214.815 35.7307 215.081 35.5167C215.406 35.2507 215.769 35.0172 216.177 34.8226C216.657 34.5891 217.176 34.4075 217.741 34.2842C218.389 34.1415 219.077 34.0702 219.803 34.0702C220.199 34.0702 220.51 34.2324 220.731 34.5567C220.932 34.8421 221.036 35.1794 221.036 35.5751C221.036 36.1524 220.874 36.5351 220.549 36.7232C220.316 36.8594 220.141 36.9307 220.024 36.9307C219.894 36.9307 219.739 36.8399 219.557 36.6518C219.421 36.5156 219.284 36.3534 219.135 36.1524C219.083 36.0745 219.019 35.9902 218.947 35.8864L218.811 35.6918C218.798 35.6464 218.785 35.6205 218.779 35.6205Z" fill="#4B4B4B"/>
<path d="M227.561 38.5394C227.146 39.1232 226.763 39.6356 226.419 40.0767C226.004 40.6086 225.634 41.0561 225.303 41.4259C224.506 42.308 223.909 42.7556 223.507 42.7556C223.033 42.7556 222.618 42.6194 222.261 42.3405C221.814 41.9967 221.587 41.5037 221.587 40.868C221.587 39.9275 221.762 38.8637 222.119 37.6832C222.3 37.0929 222.508 36.5545 222.735 36.0745C222.988 35.5491 223.254 35.1275 223.546 34.8032C223.935 34.3426 224.389 34.1156 224.927 34.1156C225.148 34.1156 225.342 34.148 225.518 34.2129C225.758 34.2972 225.874 34.427 225.874 34.5956C225.874 34.8291 225.68 35.1859 225.297 35.6594C224.927 36.1005 224.473 36.9437 223.922 38.2021C223.656 38.8118 223.448 39.3697 223.286 39.8756C223.105 40.4464 223.014 40.894 223.014 41.2248C223.014 41.6269 223.098 41.8215 223.26 41.8215C223.293 41.8215 223.358 41.7891 223.455 41.7242C223.565 41.6594 223.695 41.5556 223.857 41.4259C224.259 41.0951 224.759 40.6345 225.355 40.0313C225.933 39.4475 226.588 38.6432 227.308 37.6118C227.658 37.1253 227.956 36.6713 228.196 36.2497C228.469 35.7956 228.651 35.4259 228.748 35.147C228.903 34.7188 229.143 34.4594 229.481 34.3751C229.818 34.2972 230.142 34.4205 230.46 34.7513C230.655 34.9588 230.752 35.1794 230.752 35.4259C230.752 35.7437 230.551 36.2172 230.149 36.8464C229.714 37.5275 229.215 38.5588 228.657 39.9405C228.385 40.6215 228.164 41.2313 228.008 41.7567C227.827 42.3599 227.736 42.814 227.736 43.1253L227.742 43.4691C227.742 43.5924 227.736 43.6961 227.729 43.7675C227.697 43.9556 227.613 44.0529 227.476 44.0529C227.308 44.0529 227.146 43.8583 226.996 43.4756C226.828 43.0475 226.75 42.5351 226.75 41.9318C226.75 41.4129 226.841 40.8356 227.009 40.1999C227.074 39.947 227.165 39.668 227.269 39.3632C227.334 39.1491 227.431 38.8767 227.561 38.5394Z" fill="#4B4B4B"/>
<path d="M238.024 34.0638C238.446 34.0638 238.789 34.252 239.062 34.6347C239.302 34.972 239.418 35.3547 239.418 35.7892C239.418 36.2498 239.295 36.5611 239.042 36.7103C238.822 36.8465 238.653 36.9179 238.536 36.9179C238.446 36.9179 238.316 36.8595 238.16 36.7363C238.037 36.639 237.901 36.5028 237.738 36.3341L237.226 35.7438C236.765 35.6465 236.195 35.7438 235.52 36.0357C234.891 36.3082 234.268 36.7103 233.646 37.2292C233.023 37.7611 232.517 38.3319 232.134 38.9287C231.719 39.5838 231.511 40.1871 231.511 40.7319L231.518 40.8682C231.537 40.933 231.589 40.9979 231.68 41.0628C231.966 41.2638 232.497 41.3676 233.263 41.3676C233.963 41.3676 234.742 41.2638 235.604 41.0498C236.538 40.8228 237.421 40.5114 238.257 40.1028C238.549 39.9536 238.783 39.8822 238.958 39.8822C239.14 39.8822 239.237 39.973 239.237 40.1611C239.237 40.2844 239.198 40.4401 239.114 40.6411C238.964 40.946 238.841 41.1665 238.731 41.3092C238.569 41.5103 238.316 41.7374 237.972 41.9838C237.687 42.1914 237.401 42.373 237.129 42.5222C236.785 42.7168 236.435 42.879 236.078 43.0152C235.663 43.1709 235.222 43.2876 234.774 43.3655C234.268 43.4563 233.73 43.5017 233.172 43.5017C232.303 43.5017 231.635 43.1968 231.181 42.5806C230.811 42.0811 230.623 41.4909 230.623 40.8033C230.623 39.9795 230.882 39.1687 231.401 38.3709C231.628 38.0141 231.914 37.6574 232.251 37.2941C232.549 36.9763 232.9 36.6455 233.295 36.3017C234.028 35.679 234.781 35.173 235.559 34.7774C236.467 34.2974 237.291 34.0638 238.024 34.0638Z" fill="#4B4B4B"/>
<path d="M247.436 34.0638C247.857 34.0638 248.201 34.252 248.474 34.6347C248.714 34.972 248.83 35.3547 248.83 35.7892C248.83 36.2498 248.707 36.5611 248.454 36.7103C248.234 36.8465 248.065 36.9179 247.948 36.9179C247.851 36.9179 247.728 36.8595 247.572 36.7363C247.449 36.639 247.313 36.5028 247.15 36.3341L246.638 35.7438C246.177 35.6465 245.607 35.7438 244.932 36.0357C244.303 36.3082 243.68 36.7103 243.057 37.2292C242.435 37.7611 241.929 38.3319 241.546 38.9287C241.131 39.5838 240.917 40.1871 240.917 40.7319L240.923 40.8682C240.943 40.933 240.995 40.9979 241.085 41.0628C241.371 41.2638 241.903 41.3676 242.668 41.3676C243.369 41.3676 244.147 41.2638 245.01 41.0498C245.944 40.8228 246.826 40.5114 247.663 40.1028C247.955 39.9536 248.188 39.8822 248.363 39.8822C248.545 39.8822 248.642 39.973 248.642 40.1611C248.642 40.2844 248.603 40.4401 248.519 40.6411C248.37 40.946 248.24 41.1665 248.136 41.3092C247.974 41.5103 247.721 41.7374 247.377 41.9838C247.092 42.1914 246.807 42.373 246.534 42.5222C246.19 42.7168 245.84 42.879 245.483 43.0152C245.068 43.1709 244.627 43.2876 244.18 43.3655C243.674 43.4563 243.135 43.5017 242.577 43.5017C241.708 43.5017 241.04 43.1968 240.586 42.5806C240.216 42.0811 240.028 41.4909 240.028 40.8033C240.028 39.9795 240.288 39.1687 240.807 38.3709C241.034 38.0141 241.319 37.6574 241.656 37.2941C241.955 36.9763 242.305 36.6455 242.701 36.3017C243.434 35.679 244.186 35.173 244.964 34.7774C245.879 34.2974 246.703 34.0638 247.436 34.0638Z" fill="#4B4B4B"/>
<path d="M251.73 38.1696L252.644 38.2086C253.001 38.215 253.338 38.2215 253.65 38.2215C254.02 38.2215 254.344 38.215 254.636 38.2086L255.842 38.1307C256.011 38.1307 256.089 38.215 256.089 38.3772C256.089 38.5718 255.965 38.7859 255.719 39.0129C255.336 39.3372 254.688 39.5772 253.767 39.7394C253.371 39.8107 252.93 39.8626 252.437 39.9015C252.002 39.9404 251.535 39.9599 251.042 39.9599L250.666 39.9469L250.575 40.1675C250.53 40.2907 250.484 40.4204 250.445 40.5437C250.335 40.9004 250.277 41.1664 250.277 41.3545C250.277 41.4972 250.309 41.575 250.387 41.588C250.685 41.6269 250.925 41.6399 251.107 41.6399C251.535 41.6399 252.015 41.5945 252.547 41.5102C253.021 41.4388 253.514 41.335 254.02 41.1988C255.005 40.9394 255.725 40.6734 256.193 40.4075C256.634 40.1545 256.977 40.0313 257.224 40.0313C257.425 40.0313 257.529 40.1415 257.529 40.3556C257.529 40.4983 257.483 40.6604 257.393 40.8486C257.023 41.6399 256.361 42.2756 255.421 42.7556C254.363 43.3004 253.079 43.5729 251.568 43.5729H251.289C251.14 43.5729 251.01 43.5664 250.893 43.5534C250.53 43.5145 250.251 43.4302 250.063 43.281C249.894 43.1448 249.751 42.9632 249.648 42.7491C249.505 42.4637 249.434 42.1459 249.434 41.7956C249.434 41.5167 249.498 41.1469 249.635 40.6799L249.81 40.1221L249.972 39.668C249.901 39.5902 249.836 39.4345 249.777 39.2075C249.725 39.0064 249.693 38.8507 249.693 38.7404C249.693 38.2929 249.998 38.0983 250.601 38.1502C250.802 37.7221 251.042 37.255 251.315 36.7491C251.425 36.5545 251.542 36.3404 251.678 36.1069L252.022 35.5167C251.782 35.348 251.665 35.0626 251.665 34.6475C251.665 34.3361 251.957 34.174 252.534 34.161C253.501 34.135 254.519 34.1221 255.589 34.1221H256.679L257.795 34.148C258.106 34.161 258.268 34.2648 258.268 34.4529C258.268 34.7967 258.061 35.0821 257.645 35.2961C256.938 35.6853 255.479 35.8864 253.254 35.9188L251.73 38.1696Z" fill="#4B4B4B"/>
<path d="M264.132 35.6205C263.963 35.601 263.834 35.5945 263.743 35.5945C263.049 35.5945 262.381 35.7113 261.732 35.9513C261.083 36.1913 260.753 36.4442 260.753 36.6972C260.753 36.9113 261.135 37.2096 261.901 37.6053C262.193 37.761 262.543 37.9232 262.951 38.1048L263.976 38.5459C264.787 38.8702 265.189 39.5059 265.189 40.4529C265.189 40.7383 265.163 40.9913 265.124 41.2248C265.001 41.9059 264.547 42.4572 263.775 42.8659C263.12 43.2096 262.433 43.3848 261.713 43.3848C260.525 43.3848 259.611 43.1513 258.969 42.6842C258.67 42.4702 258.411 42.1588 258.184 41.7502C257.97 41.3805 257.866 41.0886 257.866 40.8615C257.866 40.6669 257.963 40.5696 258.171 40.5696C258.307 40.5696 258.489 40.6215 258.722 40.7253C259.209 40.9588 259.767 41.134 260.389 41.2507C260.947 41.348 261.55 41.3999 262.193 41.3999C263.756 41.3999 264.534 41.1664 264.534 40.6994C264.534 40.5048 264.307 40.3037 263.847 40.1091C263.01 39.7394 262.251 39.3761 261.576 39.0259C260.804 38.6107 260.273 38.2734 259.981 38.0075C259.663 37.4042 259.591 36.7945 259.767 36.1783C259.948 35.9513 260.169 35.7307 260.435 35.5167C260.759 35.2507 261.122 35.0172 261.531 34.8226C262.011 34.5891 262.53 34.4075 263.094 34.2842C263.743 34.1415 264.424 34.0702 265.157 34.0702C265.553 34.0702 265.864 34.2324 266.084 34.5567C266.286 34.8421 266.389 35.1794 266.389 35.5751C266.389 36.1524 266.227 36.5351 265.903 36.7232C265.669 36.8594 265.494 36.9307 265.377 36.9307C265.248 36.9307 265.092 36.8399 264.91 36.6518C264.774 36.5156 264.631 36.3534 264.489 36.1524C264.437 36.0745 264.372 35.9902 264.301 35.8864L264.164 35.6918C264.151 35.6464 264.138 35.6205 264.132 35.6205Z" fill="#4B4B4B"/>
<path d="M272.304 35.6205C272.136 35.601 272.006 35.5945 271.915 35.5945C271.221 35.5945 270.553 35.7113 269.904 35.9513C269.256 36.1913 268.925 36.4442 268.925 36.6972C268.925 36.9113 269.308 37.2096 270.08 37.6053C270.371 37.761 270.722 37.9232 271.13 38.1048L272.155 38.5459C272.966 38.8702 273.368 39.5059 273.368 40.4529C273.368 40.7383 273.349 40.9913 273.303 41.2248C273.18 41.9059 272.726 42.4572 271.954 42.8659C271.299 43.2096 270.611 43.3848 269.891 43.3848C268.704 43.3848 267.796 43.1513 267.154 42.6842C266.856 42.4702 266.596 42.1588 266.369 41.7502C266.155 41.3805 266.051 41.0886 266.051 40.8615C266.051 40.6669 266.155 40.5696 266.356 40.5696C266.493 40.5696 266.674 40.6215 266.908 40.7253C267.394 40.9588 267.952 41.134 268.581 41.2507C269.139 41.348 269.742 41.3999 270.384 41.3999C271.948 41.3999 272.726 41.1664 272.726 40.6994C272.726 40.5048 272.499 40.3037 272.038 40.1091C271.202 39.7394 270.443 39.3761 269.768 39.0259C268.996 38.6107 268.464 38.2734 268.173 38.0075C267.855 37.4042 267.783 36.7945 267.958 36.1783C268.14 35.9513 268.361 35.7307 268.627 35.5167C268.951 35.2507 269.314 35.0172 269.723 34.8226C270.203 34.5891 270.722 34.4075 271.286 34.2842C271.935 34.1415 272.616 34.0702 273.349 34.0702C273.744 34.0702 274.056 34.2324 274.276 34.5567C274.477 34.8421 274.581 35.1794 274.581 35.5751C274.581 36.1524 274.419 36.5351 274.095 36.7232C273.861 36.8594 273.686 36.9307 273.569 36.9307C273.44 36.9307 273.284 36.8399 273.102 36.6518C272.966 36.5156 272.823 36.3534 272.681 36.1524C272.629 36.0745 272.564 35.9902 272.493 35.8864L272.356 35.6918C272.324 35.6464 272.311 35.6205 272.304 35.6205Z" fill="#4B4B4B"/>
</svg>
